<svg width="16" height="17" viewBox="0 0 16 17" fill="none" xmlns="http://www.w3.org/2000/svg">
<g id="vuesax/outline/frame">
<g id="vuesax/outline/frame_2">
<g id="frame">
<path id="Vector" d="M8.10646 8.24634C8.08646 8.24634 8.07313 8.24634 8.05313 8.24634C8.0198 8.23967 7.97313 8.23967 7.93313 8.24634C5.99979 8.18634 4.53979 6.66634 4.53979 4.79301C4.53979 2.88634 6.09313 1.33301 7.9998 1.33301C9.90646 1.33301 11.4598 2.88634 11.4598 4.79301C11.4531 6.66634 9.98646 8.18634 8.12646 8.24634C8.11979 8.24634 8.11313 8.24634 8.10646 8.24634ZM7.9998 2.33301C6.64646 2.33301 5.5398 3.43967 5.5398 4.79301C5.5398 6.12634 6.57979 7.19967 7.90646 7.24634C7.93979 7.23967 8.03313 7.23967 8.1198 7.24634C9.42646 7.18634 10.4531 6.11301 10.4598 4.79301C10.4598 3.43967 9.35313 2.33301 7.9998 2.33301Z" fill="#333333"/>
<path id="Vector_2" d="M8.11307 15.5337C6.80641 15.5337 5.49307 15.2003 4.49974 14.5337C3.57307 13.9203 3.06641 13.0803 3.06641 12.167C3.06641 11.2537 3.57307 10.407 4.49974 9.78699C6.49974 8.46033 9.73974 8.46033 11.7264 9.78699C12.6464 10.4003 13.1597 11.2403 13.1597 12.1537C13.1597 13.067 12.6531 13.9137 11.7264 14.5337C10.7264 15.2003 9.41974 15.5337 8.11307 15.5337ZM5.05307 10.627C4.41307 11.0537 4.06641 11.6003 4.06641 12.1737C4.06641 12.7403 4.41974 13.287 5.05307 13.707C6.71307 14.8203 9.51307 14.8203 11.1731 13.707C11.8131 13.2803 12.1597 12.7337 12.1597 12.1603C12.1597 11.5937 11.8064 11.047 11.1731 10.627C9.51307 9.52033 6.71307 9.52033 5.05307 10.627Z" fill="#333333"/>
</g>
</g>
</g>
</svg>
