<svg width="16" height="17" viewBox="0 0 16 17" fill="none" xmlns="http://www.w3.org/2000/svg">
<g id="vuesax/outline/heart-tick">
<g id="vuesax/outline/heart-tick_2">
<g id="heart-tick">
<path id="Vector" d="M11.4666 15.6666C10.1733 15.6666 8.95993 14.9799 8.29993 13.8666C7.95327 13.3066 7.7666 12.6399 7.7666 11.9666C7.7666 9.92659 9.4266 8.2666 11.4666 8.2666C13.5066 8.2666 15.1666 9.92659 15.1666 11.9666C15.1666 12.6466 14.9799 13.3066 14.6266 13.8799C13.9733 14.9799 12.7599 15.6666 11.4666 15.6666ZM11.4666 9.2666C9.97993 9.2666 8.7666 10.4799 8.7666 11.9666C8.7666 12.4599 8.89993 12.9399 9.15327 13.3533C9.6466 14.1799 10.5066 14.6666 11.4666 14.6666C12.4266 14.6666 13.2866 14.1799 13.7733 13.3599C14.0333 12.9399 14.1666 12.4599 14.1666 11.9666C14.1666 10.4799 12.9533 9.2666 11.4666 9.2666Z" fill="#333333"/>
<path id="Vector_2" d="M11.0067 13.2535C10.88 13.2535 10.7533 13.2068 10.6533 13.1068L9.86668 12.3202C9.67335 12.1268 9.67335 11.8068 9.86668 11.6135C10.06 11.4202 10.38 11.4202 10.5733 11.6135L11.02 12.0602L12.3733 10.8069C12.58 10.6202 12.8933 10.6335 13.08 10.8335C13.2667 11.0335 13.2533 11.3535 13.0533 11.5402L11.3467 13.1135C11.2533 13.2135 11.1267 13.2535 11.0067 13.2535Z" fill="#333333"/>
<path id="Vector_3" d="M8.00004 14.9331C7.79337 14.9331 7.58671 14.9064 7.42004 14.8464C5.71337 14.2664 0.833374 11.4398 0.833374 6.29309C0.833374 3.95976 2.72004 2.06641 5.04004 2.06641C6.14671 2.06641 7.22004 2.51309 8.00004 3.29309C8.78004 2.51309 9.85337 2.06641 10.96 2.06641C13.28 2.06641 15.1667 3.95976 15.1667 6.29309C15.1667 7.59309 14.8534 8.83976 14.2334 10.0064C14.16 10.1464 14.02 10.2464 13.86 10.2664C13.7 10.2864 13.54 10.2331 13.4267 10.1131C12.9067 9.56641 12.2134 9.25977 11.4667 9.25977C9.98004 9.25977 8.76671 10.4731 8.76671 11.9598C8.76671 12.6198 9.01337 13.2598 9.46004 13.7598C9.56671 13.8798 9.60671 14.0397 9.57337 14.1931C9.54004 14.3464 9.43337 14.4798 9.29337 14.5464C9.02671 14.6664 8.78671 14.7664 8.56671 14.8398C8.40671 14.9064 8.20671 14.9331 8.00004 14.9331ZM5.04004 3.06641C3.27337 3.06641 1.83337 4.51309 1.83337 6.29309C1.83337 10.8531 6.21337 13.3731 7.74671 13.8997C7.87337 13.9464 8.12671 13.9397 8.24671 13.8997C8.26671 13.8931 8.28671 13.8864 8.30671 13.8798C7.95337 13.3064 7.76671 12.6464 7.76671 11.9664C7.76671 9.92643 9.42671 8.26644 11.4667 8.26644C12.24 8.26644 13 8.5131 13.6267 8.96643C13.9867 8.1131 14.1667 7.21976 14.1667 6.29309C14.1667 4.51309 12.7267 3.06641 10.96 3.06641C9.96004 3.06641 9.00004 3.54644 8.40004 4.35311C8.21337 4.60644 7.78671 4.60644 7.60004 4.35311C7.00004 3.54644 6.04004 3.06641 5.04004 3.06641Z" fill="#333333"/>
</g>
</g>
</g>
</svg>
