<svg width="16" height="17" viewBox="0 0 16 17" fill="none" xmlns="http://www.w3.org/2000/svg">
<g id="vuesax/outline/note-2">
<g id="vuesax/outline/note-2_2">
<g id="note-2">
<path id="Vector" d="M10.54 13.9537C10.3667 13.9537 10.1867 13.947 9.99338 13.927C9.64671 13.9003 9.25338 13.8337 8.84672 13.7337L7.72671 13.467C4.65338 12.7403 3.64671 11.1137 4.36671 8.047L5.02005 5.25367C5.16671 4.62034 5.34005 4.107 5.55338 3.68034C6.70005 1.31367 8.89338 1.527 10.4534 1.89367L11.5667 2.15367C13.1267 2.52034 14.1134 3.10034 14.6667 3.987C15.2134 4.87367 15.3 6.01367 14.9334 7.57367L14.28 10.3603C13.7067 12.8003 12.5134 13.9537 10.54 13.9537ZM8.74671 2.667C7.63338 2.667 6.92671 3.127 6.45338 4.11367C6.28005 4.47367 6.12671 4.92034 5.99338 5.48034L5.34005 8.27367C4.74671 10.7937 5.43338 11.8937 7.95338 12.4937L9.07338 12.7603C9.43338 12.847 9.77338 12.9003 10.08 12.927C11.8934 13.107 12.7934 12.3137 13.3 10.1337L13.9534 7.347C14.2534 6.06034 14.2134 5.16034 13.8134 4.51367C13.4134 3.867 12.6267 3.427 11.3334 3.127L10.22 2.867C9.66671 2.73367 9.17338 2.667 8.74671 2.667Z" fill="#333333"/>
<path id="Vector_2" d="M5.55329 15.3331C3.83995 15.3331 2.74662 14.3065 2.04662 12.1398L1.19329 9.50646C0.24662 6.57312 1.09329 4.91979 4.01329 3.97312L5.06662 3.63312C5.41329 3.52646 5.67329 3.45312 5.90662 3.41312C6.09995 3.37312 6.28662 3.44646 6.39995 3.59979C6.51329 3.75312 6.53329 3.95312 6.45329 4.12646C6.27995 4.47979 6.12662 4.92646 5.99995 5.48646L5.34662 8.27979C4.75329 10.7998 5.43995 11.8998 7.95995 12.4998L9.07995 12.7665C9.43995 12.8531 9.77995 12.9065 10.0866 12.9331C10.3 12.9531 10.4733 13.0998 10.5333 13.3065C10.5866 13.5131 10.5066 13.7265 10.3333 13.8465C9.89329 14.1465 9.33995 14.3998 8.63995 14.6265L7.58662 14.9731C6.81995 15.2131 6.15329 15.3331 5.55329 15.3331ZM5.18662 4.64646L4.32662 4.92646C1.94662 5.69312 1.37995 6.81312 2.14662 9.19979L2.99995 11.8331C3.77329 14.2131 4.89329 14.7865 7.27329 14.0198L8.32662 13.6731C8.36662 13.6598 8.39995 13.6465 8.43995 13.6331L7.73329 13.4665C4.65995 12.7398 3.65329 11.1131 4.37329 8.04646L5.02662 5.25312C5.07329 5.03979 5.12662 4.83312 5.18662 4.64646Z" fill="#333333"/>
<path id="Vector_3" d="M11.66 7.50652C11.62 7.50652 11.58 7.49985 11.5334 7.49318L8.30004 6.67318C8.03337 6.60652 7.87337 6.33318 7.94004 6.06652C8.00671 5.79985 8.28004 5.63985 8.54671 5.70652L11.78 6.52652C12.0467 6.59318 12.2067 6.86652 12.14 7.13318C12.0867 7.35318 11.88 7.50652 11.66 7.50652Z" fill="#333333"/>
<path id="Vector_4" d="M9.70667 9.75993C9.66667 9.75993 9.62667 9.75326 9.58 9.7466L7.64 9.25326C7.37334 9.1866 7.21334 8.91326 7.28 8.6466C7.34667 8.37993 7.62 8.21993 7.88667 8.2866L9.82667 8.77993C10.0933 8.8466 10.2533 9.11993 10.1867 9.3866C10.1333 9.61326 9.93334 9.75993 9.70667 9.75993Z" fill="#333333"/>
</g>
</g>
</g>
</svg>
