<svg width="12" height="12" viewBox="0 0 12 12" fill="none" xmlns="http://www.w3.org/2000/svg">
<g id="vuesax/outline/award">
<g id="vuesax/outline/award_2">
<g id="award">
<path id="Vector" d="M6 11.3753C5.7 11.3753 5.405 11.3053 5.165 11.1703L2.8 9.80527C1.82 9.14527 1.755 9.02527 1.755 7.99027V5.51027C1.755 4.47527 1.82 4.35527 2.78 3.71027L5.17 2.33027C5.645 2.05527 6.36 2.05527 6.835 2.33027L9.2 3.69527C10.18 4.35527 10.245 4.47527 10.245 5.51027V7.99027C10.245 9.02527 10.18 9.14527 9.22 9.79027L6.83 11.1703C6.595 11.3103 6.295 11.3753 6 11.3753ZM6 2.87527C5.83 2.87527 5.66 2.91027 5.54 2.98027L3.175 4.34527C2.505 4.80027 2.505 4.80027 2.505 5.51027V7.99027C2.505 8.70027 2.505 8.70027 3.2 9.17027L5.545 10.5203C5.785 10.6603 6.22 10.6603 6.46 10.5203L8.825 9.15527C9.495 8.70027 9.495 8.70027 9.495 7.99027V5.51027C9.495 4.80027 9.495 4.80027 8.8 4.33027L6.455 2.98027C6.34 2.91027 6.17 2.87527 6 2.87527Z" fill="#4EAF00"/>
<path id="Vector_2" d="M8.75 4.19C8.545 4.19 8.375 4.02 8.375 3.815V2.5C8.375 1.71 8.04 1.375 7.25 1.375H4.75C3.96 1.375 3.625 1.71 3.625 2.5V3.78C3.625 3.985 3.455 4.155 3.25 4.155C3.045 4.155 2.875 3.99 2.875 3.78V2.5C2.875 1.29 3.54 0.625 4.75 0.625H7.25C8.46 0.625 9.125 1.29 9.125 2.5V3.815C9.125 4.02 8.955 4.19 8.75 4.19Z" fill="#4EAF00"/>
<path id="Vector_3" d="M6.815 8.81457C6.71 8.81457 6.6 8.79457 6.49 8.74957L6 8.55957L5.51 8.75457C5.245 8.85957 4.975 8.83457 4.775 8.68957C4.575 8.54457 4.47 8.29457 4.485 8.00957L4.515 7.48457L4.18 7.07957C4 6.85457 3.94 6.59457 4.02 6.35457C4.095 6.11957 4.3 5.93957 4.575 5.86957L5.085 5.73957L5.37 5.29457C5.675 4.81457 6.33 4.81457 6.635 5.29457L6.92 5.73957L7.43 5.86957C7.705 5.93957 7.91 6.11957 7.985 6.35457C8.06 6.58957 8 6.85457 7.82 7.07457L7.485 7.47957L7.515 8.00457C7.53 8.28957 7.425 8.53457 7.225 8.68457C7.105 8.76957 6.965 8.81457 6.815 8.81457ZM4.76 6.59957L5.095 7.00457C5.21 7.13957 5.275 7.35457 5.265 7.52957L5.235 8.05457L5.725 7.85957C5.89 7.79457 6.11 7.79457 6.275 7.85957L6.765 8.05457L6.735 7.52957C6.725 7.35457 6.79 7.14457 6.905 7.00457L7.24 6.59957L6.73 6.46957C6.56 6.42457 6.38 6.29457 6.285 6.14957L6.005 5.70957L5.72 6.14957C5.625 6.29957 5.445 6.42957 5.275 6.47457L4.76 6.59957Z" fill="#4EAF00"/>
</g>
</g>
</g>
</svg>
