<svg width="16" height="17" viewBox="0 0 16 17" fill="none" xmlns="http://www.w3.org/2000/svg">
<g id="vuesax/outline/logout">
<g id="vuesax/outline/logout_2">
<g id="logout">
<path id="Vector" d="M10.1601 15.3467H10.0734C7.11338 15.3467 5.68672 14.18 5.44005 11.5667C5.41338 11.2933 5.61338 11.0467 5.89338 11.02C6.16005 10.9933 6.41338 11.2 6.44005 11.4733C6.63338 13.5667 7.62005 14.3467 10.0801 14.3467H10.1667C12.8801 14.3467 13.8401 13.3867 13.8401 10.6733V6.32665C13.8401 3.61332 12.8801 2.65332 10.1667 2.65332H10.0801C7.60672 2.65332 6.62005 3.44665 6.44005 5.57999C6.40672 5.85332 6.17338 6.05999 5.89338 6.03332C5.61338 6.01332 5.41338 5.76665 5.43338 5.49332C5.66005 2.83999 7.09338 1.65332 10.0734 1.65332H10.1601C13.4334 1.65332 14.8334 3.05332 14.8334 6.32665V10.6733C14.8334 13.9467 13.4334 15.3467 10.1601 15.3467Z" fill="#333333"/>
<path id="Vector_2" d="M10 9H2.41333C2.14 9 1.91333 8.77333 1.91333 8.5C1.91333 8.22667 2.14 8 2.41333 8H10C10.2733 8 10.5 8.22667 10.5 8.5C10.5 8.77333 10.2733 9 10 9Z" fill="#333333"/>
<path id="Vector_3" d="M3.9 11.2336C3.77333 11.2336 3.64667 11.1869 3.54667 11.0869L1.31333 8.85356C1.12 8.66022 1.12 8.34022 1.31333 8.14689L3.54667 5.91355C3.74 5.72022 4.06 5.72022 4.25333 5.91355C4.44667 6.10689 4.44667 6.42689 4.25333 6.62022L2.37333 8.50022L4.25333 10.3802C4.44667 10.5736 4.44667 10.8936 4.25333 11.0869C4.16 11.1869 4.02667 11.2336 3.9 11.2336Z" fill="#333333"/>
</g>
</g>
</g>
</svg>
