<svg width="16" height="17" viewBox="0 0 16 17" fill="none" xmlns="http://www.w3.org/2000/svg">
<path d="M8.00004 15.6663C4.04671 15.6663 0.833374 12.453 0.833374 8.49967C0.833374 4.54634 4.04671 1.33301 8.00004 1.33301C11.9534 1.33301 15.1667 4.54634 15.1667 8.49967C15.1667 12.453 11.9534 15.6663 8.00004 15.6663ZM8.00004 2.33301C4.60004 2.33301 1.83337 5.09967 1.83337 8.49967C1.83337 11.8997 4.60004 14.6663 8.00004 14.6663C11.4 14.6663 14.1667 11.8997 14.1667 8.49967C14.1667 5.09967 11.4 2.33301 8.00004 2.33301Z" fill="#333333"/>
<path d="M10.6667 9H5.33337C5.06004 9 4.83337 8.77333 4.83337 8.5C4.83337 8.22667 5.06004 8 5.33337 8H10.6667C10.94 8 11.1667 8.22667 11.1667 8.5C11.1667 8.77333 10.94 9 10.6667 9Z" fill="#333333"/>
<path d="M8 11.6663C7.72667 11.6663 7.5 11.4397 7.5 11.1663V5.83301C7.5 5.55967 7.72667 5.33301 8 5.33301C8.27333 5.33301 8.5 5.55967 8.5 5.83301V11.1663C8.5 11.4397 8.27333 11.6663 8 11.6663Z" fill="#333333"/>
</svg>
