<svg width="16" height="17" viewBox="0 0 16 17" fill="none" xmlns="http://www.w3.org/2000/svg">
<g id="vuesax/outline/book">
<g id="vuesax/outline/book_2">
<g id="book">
<path id="Vector" d="M8.00004 15.2203C7.80004 15.2203 7.60004 15.1737 7.43337 15.0803C6.18671 14.4003 3.99337 13.6803 2.62004 13.5003L2.42671 13.4737C1.55337 13.367 0.833374 12.547 0.833374 11.6603V3.607C0.833374 3.08033 1.04004 2.60033 1.42004 2.25366C1.80004 1.907 2.29337 1.74033 2.81337 1.787C4.28004 1.90033 6.49337 2.63366 7.74671 3.42033L7.90671 3.51366C7.95337 3.54033 8.05337 3.54033 8.09337 3.52033L8.20004 3.45366C9.45337 2.667 11.6667 1.92033 13.14 1.79366C13.1534 1.79366 13.2067 1.79366 13.22 1.79366C13.7067 1.747 14.2067 1.92033 14.58 2.267C14.96 2.61366 15.1667 3.09366 15.1667 3.62033V11.667C15.1667 12.5603 14.4467 13.3737 13.5667 13.4803L13.3467 13.507C11.9734 13.687 9.77337 14.4137 8.55337 15.087C8.39337 15.1803 8.20004 15.2203 8.00004 15.2203ZM2.65337 2.78033C2.44004 2.78033 2.24671 2.85366 2.09337 2.99366C1.92671 3.147 1.83337 3.367 1.83337 3.607V11.6603C1.83337 12.0537 2.17337 12.4337 2.55337 12.487L2.75337 12.5137C4.25337 12.7137 6.55337 13.467 7.88671 14.1937C7.94671 14.2203 8.03337 14.227 8.06671 14.2137C9.40004 13.4737 11.7134 12.7137 13.22 12.5137L13.4467 12.487C13.8267 12.4403 14.1667 12.0537 14.1667 11.6603V3.61366C14.1667 3.367 14.0734 3.15366 13.9067 2.99366C13.7334 2.84033 13.5134 2.767 13.2667 2.78033C13.2534 2.78033 13.2 2.78033 13.1867 2.78033C11.9134 2.89366 9.86004 3.58033 8.74004 4.28033L8.63337 4.35366C8.26671 4.58033 7.74671 4.58033 7.39337 4.36033L7.23337 4.267C6.09337 3.567 4.04004 2.887 2.73337 2.78033C2.70671 2.78033 2.68004 2.78033 2.65337 2.78033Z" fill="#333333"/>
<path id="Vector_2" d="M8 14.6602C7.72667 14.6602 7.5 14.4335 7.5 14.1602V4.16016C7.5 3.88682 7.72667 3.66016 8 3.66016C8.27333 3.66016 8.5 3.88682 8.5 4.16016V14.1602C8.5 14.4402 8.27333 14.6602 8 14.6602Z" fill="#333333"/>
<path id="Vector_3" d="M5.16663 6.66016H3.66663C3.39329 6.66016 3.16663 6.43349 3.16663 6.16016C3.16663 5.88682 3.39329 5.66016 3.66663 5.66016H5.16663C5.43996 5.66016 5.66663 5.88682 5.66663 6.16016C5.66663 6.43349 5.43996 6.66016 5.16663 6.66016Z" fill="#333333"/>
<path id="Vector_4" d="M5.66663 8.66016H3.66663C3.39329 8.66016 3.16663 8.43349 3.16663 8.16016C3.16663 7.88682 3.39329 7.66016 3.66663 7.66016H5.66663C5.93996 7.66016 6.16663 7.88682 6.16663 8.16016C6.16663 8.43349 5.93996 8.66016 5.66663 8.66016Z" fill="#333333"/>
</g>
</g>
</g>
</svg>
