<svg width="16" height="17" viewBox="0 0 16 17" fill="none" xmlns="http://www.w3.org/2000/svg">
<g id="vuesax/outline/setting-4">
<g id="vuesax/outline/setting-4_2">
<g id="setting-4">
<path id="Vector" d="M14.6666 5.33301H10.6666C10.3933 5.33301 10.1666 5.10634 10.1666 4.83301C10.1666 4.55967 10.3933 4.33301 10.6666 4.33301H14.6666C14.94 4.33301 15.1666 4.55967 15.1666 4.83301C15.1666 5.10634 14.94 5.33301 14.6666 5.33301Z" fill="#333333"/>
<path id="Vector_2" d="M4.00004 5.33301H1.33337C1.06004 5.33301 0.833374 5.10634 0.833374 4.83301C0.833374 4.55967 1.06004 4.33301 1.33337 4.33301H4.00004C4.27337 4.33301 4.50004 4.55967 4.50004 4.83301C4.50004 5.10634 4.27337 5.33301 4.00004 5.33301Z" fill="#333333"/>
<path id="Vector_3" d="M6.66671 7.66667C5.10671 7.66667 3.83337 6.39333 3.83337 4.83333C3.83337 3.27333 5.10671 2 6.66671 2C8.22671 2 9.50004 3.27333 9.50004 4.83333C9.50004 6.39333 8.22671 7.66667 6.66671 7.66667ZM6.66671 3C5.65337 3 4.83337 3.82 4.83337 4.83333C4.83337 5.84667 5.65337 6.66667 6.66671 6.66667C7.68004 6.66667 8.50004 5.84667 8.50004 4.83333C8.50004 3.82 7.68004 3 6.66671 3Z" fill="#333333"/>
<path id="Vector_4" d="M14.6667 12.667H12C11.7267 12.667 11.5 12.4403 11.5 12.167C11.5 11.8937 11.7267 11.667 12 11.667H14.6667C14.94 11.667 15.1667 11.8937 15.1667 12.167C15.1667 12.4403 14.94 12.667 14.6667 12.667Z" fill="#333333"/>
<path id="Vector_5" d="M5.33337 12.667H1.33337C1.06004 12.667 0.833374 12.4403 0.833374 12.167C0.833374 11.8937 1.06004 11.667 1.33337 11.667H5.33337C5.60671 11.667 5.83337 11.8937 5.83337 12.167C5.83337 12.4403 5.60671 12.667 5.33337 12.667Z" fill="#333333"/>
<path id="Vector_6" d="M9.33333 14.9997C7.77333 14.9997 6.5 13.7263 6.5 12.1663C6.5 10.6063 7.77333 9.33301 9.33333 9.33301C10.8933 9.33301 12.1667 10.6063 12.1667 12.1663C12.1667 13.7263 10.8933 14.9997 9.33333 14.9997ZM9.33333 10.333C8.32 10.333 7.5 11.153 7.5 12.1663C7.5 13.1797 8.32 13.9997 9.33333 13.9997C10.3467 13.9997 11.1667 13.1797 11.1667 12.1663C11.1667 11.153 10.3467 10.333 9.33333 10.333Z" fill="#333333"/>
</g>
</g>
</g>
</svg>
