<svg width="337" height="78" viewBox="0 0 337 78" fill="none" xmlns="http://www.w3.org/2000/svg">
<path fill-rule="evenodd" clip-rule="evenodd" d="M0.108 19.788C0.108 16.252 0.873 13.107 2.403 10.353C3.933 7.565 6.058 5.406 8.778 3.876C11.532 2.312 14.643 1.53 18.111 1.53C22.361 1.53 25.999 2.652 29.025 4.896C32.051 7.14 34.074 10.2 35.094 14.076H25.506C24.792 12.58 23.772 11.441 22.446 10.659C21.154 9.877 19.675 9.486 18.009 9.486C15.323 9.486 13.147 10.421 11.481 12.291C9.815 14.161 8.982 16.66 8.982 19.788C8.982 22.916 9.815 25.415 11.481 27.285C13.147 29.155 15.323 30.09 18.009 30.09C19.675 30.09 21.154 29.699 22.446 28.917C23.772 28.135 24.792 26.996 25.506 25.5H35.094C34.074 29.376 32.051 32.436 29.025 34.68C25.999 36.89 22.361 37.995 18.111 37.995C14.643 37.995 11.532 37.23 8.778 35.7C6.058 34.136 3.933 31.977 2.403 29.223C0.873 26.469 0.108 23.324 0.108 19.788ZM53.3887 38.148C50.6007 38.148 48.0847 37.553 45.8407 36.363C43.6307 35.173 41.8797 33.473 40.5877 31.263C39.3297 29.053 38.7007 26.469 38.7007 23.511C38.7007 20.587 39.3467 18.02 40.6387 15.81C41.9307 13.566 43.6987 11.849 45.9427 10.659C48.1867 9.469 50.7027 8.874 53.4907 8.874C56.2787 8.874 58.7947 9.469 61.0387 10.659C63.2827 11.849 65.0507 13.566 66.3427 15.81C67.6347 18.02 68.2807 20.587 68.2807 23.511C68.2807 26.435 67.6177 29.019 66.2917 31.263C64.9997 33.473 63.2147 35.173 60.9367 36.363C58.6927 37.553 56.1767 38.148 53.3887 38.148ZM53.3887 30.6C55.0547 30.6 56.4657 29.988 57.6217 28.764C58.8117 27.54 59.4067 25.789 59.4067 23.511C59.4067 21.233 58.8287 19.482 57.6727 18.258C56.5507 17.034 55.1567 16.422 53.4907 16.422C51.7907 16.422 50.3797 17.034 49.2577 18.258C48.1357 19.448 47.5747 21.199 47.5747 23.511C47.5747 25.789 48.1187 27.54 49.2067 28.764C50.3287 29.988 51.7227 30.6 53.3887 30.6ZM105.7 39.831V48.195H74.0803V39.831H105.7ZM121.422 0V37.74H112.701V0H121.422ZM126.008 23.46C126.008 20.536 126.552 17.969 127.64 15.759C128.762 13.549 130.275 11.849 132.179 10.659C134.083 9.469 136.208 8.874 138.554 8.874C140.56 8.874 142.311 9.282 143.807 10.098C145.337 10.914 146.51 11.985 147.326 13.311V9.282H156.047V37.74H147.326V33.711C146.476 35.037 145.286 36.108 143.756 36.924C142.26 37.74 140.509 38.148 138.503 38.148C136.191 38.148 134.083 37.553 132.179 36.363C130.275 35.139 128.762 33.422 127.64 31.212C126.552 28.968 126.008 26.384 126.008 23.46ZM147.326 23.511C147.326 21.335 146.714 19.618 145.49 18.36C144.3 17.102 142.838 16.473 141.104 16.473C139.37 16.473 137.891 17.102 136.667 18.36C135.477 19.584 134.882 21.284 134.882 23.46C134.882 25.636 135.477 27.37 136.667 28.662C137.891 29.92 139.37 30.549 141.104 30.549C142.838 30.549 144.3 29.92 145.49 28.662C146.714 27.404 147.326 25.687 147.326 23.511ZM171.078 13.311C171.894 11.985 173.067 10.914 174.597 10.098C176.127 9.282 177.878 8.874 179.85 8.874C182.196 8.874 184.321 9.469 186.225 10.659C188.129 11.849 189.625 13.549 190.713 15.759C191.835 17.969 192.396 20.536 192.396 23.46C192.396 26.384 191.835 28.968 190.713 31.212C189.625 33.422 188.129 35.139 186.225 36.363C184.321 37.553 182.196 38.148 179.85 38.148C177.844 38.148 176.093 37.757 174.597 36.975C173.101 36.159 171.928 35.088 171.078 33.762V37.74H162.357V0H171.078V13.311ZM183.522 23.46C183.522 21.284 182.91 19.584 181.686 18.36C180.496 17.102 179.017 16.473 177.249 16.473C175.515 16.473 174.036 17.102 172.812 18.36C171.622 19.618 171.027 21.335 171.027 23.511C171.027 25.687 171.622 27.404 172.812 28.662C174.036 29.92 175.515 30.549 177.249 30.549C178.983 30.549 180.462 29.92 181.686 28.662C182.91 27.37 183.522 25.636 183.522 23.46ZM255.65 13.311C256.5 11.985 257.673 10.914 259.169 10.098C260.665 9.282 262.416 8.874 264.422 8.874C266.768 8.874 268.893 9.469 270.797 10.659C272.701 11.849 274.197 13.549 275.285 15.759C276.407 17.969 276.968 20.536 276.968 23.46C276.968 26.384 276.407 28.968 275.285 31.212C274.197 33.422 272.701 35.139 270.797 36.363C268.893 37.553 266.768 38.148 264.422 38.148C262.45 38.148 260.699 37.74 259.169 36.924C257.673 36.108 256.5 35.054 255.65 33.762V51.306H246.929V9.282H255.65V13.311ZM268.094 23.46C268.094 21.284 267.482 19.584 266.258 18.36C265.068 17.102 263.589 16.473 261.821 16.473C260.087 16.473 258.608 17.102 257.384 18.36C256.194 19.618 255.599 21.335 255.599 23.511C255.599 25.687 256.194 27.404 257.384 28.662C258.608 29.92 260.087 30.549 261.821 30.549C263.555 30.549 265.034 29.92 266.258 28.662C267.482 27.37 268.094 25.636 268.094 23.46ZM308.369 23.052C308.369 23.868 308.318 24.718 308.216 25.602H288.479C288.615 27.37 289.176 28.73 290.162 29.682C291.182 30.6 292.423 31.059 293.885 31.059C296.061 31.059 297.574 30.141 298.424 28.305H307.706C307.23 30.175 306.363 31.858 305.105 33.354C303.881 34.85 302.334 36.023 300.464 36.873C298.594 37.723 296.503 38.148 294.191 38.148C291.403 38.148 288.921 37.553 286.745 36.363C284.569 35.173 282.869 33.473 281.645 31.263C280.421 29.053 279.809 26.469 279.809 23.511C279.809 20.553 280.404 17.969 281.594 15.759C282.818 13.549 284.518 11.849 286.694 10.659C288.87 9.469 291.369 8.874 294.191 8.874C296.945 8.874 299.393 9.452 301.535 10.608C303.677 11.764 305.343 13.413 306.533 15.555C307.757 17.697 308.369 20.196 308.369 23.052ZM299.444 20.757C299.444 19.261 298.934 18.071 297.914 17.187C296.894 16.303 295.619 15.861 294.089 15.861C292.627 15.861 291.386 16.286 290.366 17.136C289.38 17.986 288.768 19.193 288.53 20.757H299.444ZM324.547 38.148C322.065 38.148 319.855 37.723 317.917 36.873C315.979 36.023 314.449 34.867 313.327 33.405C312.205 31.909 311.576 30.243 311.44 28.407H320.059C320.161 29.393 320.62 30.192 321.436 30.804C322.252 31.416 323.255 31.722 324.445 31.722C325.533 31.722 326.366 31.518 326.944 31.11C327.556 30.668 327.862 30.107 327.862 29.427C327.862 28.611 327.437 28.016 326.587 27.642C325.737 27.234 324.36 26.792 322.456 26.316C320.416 25.84 318.716 25.347 317.356 24.837C315.996 24.293 314.823 23.46 313.837 22.338C312.851 21.182 312.358 19.635 312.358 17.697C312.358 16.065 312.8 14.586 313.684 13.26C314.602 11.9 315.928 10.829 317.662 10.047C319.43 9.265 321.521 8.874 323.935 8.874C327.505 8.874 330.31 9.758 332.35 11.526C334.424 13.294 335.614 15.64 335.92 18.564H327.862C327.726 17.578 327.284 16.796 326.536 16.218C325.822 15.64 324.87 15.351 323.68 15.351C322.66 15.351 321.878 15.555 321.334 15.963C320.79 16.337 320.518 16.864 320.518 17.544C320.518 18.36 320.943 18.972 321.793 19.38C322.677 19.788 324.037 20.196 325.873 20.604C327.981 21.148 329.698 21.692 331.024 22.236C332.35 22.746 333.506 23.596 334.492 24.786C335.512 25.942 336.039 27.506 336.073 29.478C336.073 31.144 335.597 32.64 334.645 33.966C333.727 35.258 332.384 36.278 330.616 37.026C328.882 37.774 326.859 38.148 324.547 38.148ZM7.812 70.243C8.596 70.383 9.261 70.796 9.807 71.482C10.353 72.168 10.626 72.945 10.626 73.813C10.626 74.555 10.43 75.227 10.038 75.829C9.66 76.417 9.107 76.886 8.379 77.236C7.651 77.572 6.804 77.74 5.838 77.74H0V63.145H5.565C6.559 63.145 7.413 63.313 8.127 63.649C8.841 63.985 9.38 64.44 9.744 65.014C10.108 65.574 10.29 66.204 10.29 66.904C10.29 67.744 10.066 68.444 9.618 69.004C9.17 69.564 8.568 69.977 7.812 70.243ZM2.394 69.277H5.355C6.139 69.277 6.748 69.102 7.182 68.752C7.63 68.388 7.854 67.87 7.854 67.198C7.854 66.54 7.63 66.029 7.182 65.665C6.748 65.287 6.139 65.098 5.355 65.098H2.394V69.277ZM5.628 75.787C6.44 75.787 7.077 75.591 7.539 75.199C8.001 74.807 8.232 74.261 8.232 73.561C8.232 72.847 7.987 72.28 7.497 71.86C7.007 71.44 6.356 71.23 5.544 71.23H2.394V75.787H5.628ZM15.6005 63.145V72.448C15.6005 73.554 15.8875 74.387 16.4615 74.947C17.0495 75.507 17.8615 75.787 18.8975 75.787C19.9475 75.787 20.7595 75.507 21.3335 74.947C21.9215 74.387 22.2155 73.554 22.2155 72.448V63.145H24.6095V72.406C24.6095 73.596 24.3505 74.604 23.8325 75.43C23.3145 76.256 22.6215 76.872 21.7535 77.278C20.8855 77.684 19.9265 77.887 18.8765 77.887C17.8265 77.887 16.8675 77.684 15.9995 77.278C15.1455 76.872 14.4665 76.256 13.9625 75.43C13.4585 74.604 13.2065 73.596 13.2065 72.406V63.145H15.6005ZM30.1206 63.145V77.74H27.7266V63.145H30.1206ZM35.6577 75.808H40.5927V77.74H33.2637V63.145H35.6577V75.808ZM47.3617 63.145C48.9157 63.145 50.2737 63.446 51.4357 64.048C52.6117 64.636 53.5147 65.49 54.1447 66.61C54.7887 67.716 55.1107 69.011 55.1107 70.495C55.1107 71.979 54.7887 73.267 54.1447 74.359C53.5147 75.451 52.6117 76.291 51.4357 76.879C50.2737 77.453 48.9157 77.74 47.3617 77.74H42.5947V63.145H47.3617ZM47.3617 75.787C49.0697 75.787 50.3787 75.325 51.2887 74.401C52.1987 73.477 52.6537 72.175 52.6537 70.495C52.6537 68.801 52.1987 67.478 51.2887 66.526C50.3787 65.574 49.0697 65.098 47.3617 65.098H44.9887V75.787H47.3617ZM59.8774 63.145V77.74H57.4834V63.145H59.8774ZM75.0115 77.74H72.6175L65.4145 66.841V77.74H63.0205V63.124H65.4145L72.6175 74.002V63.124H75.0115V77.74ZM88.7183 67.345C88.3403 66.617 87.8153 66.071 87.1433 65.707C86.4713 65.329 85.6943 65.14 84.8123 65.14C83.8463 65.14 82.9853 65.357 82.2293 65.791C81.4733 66.225 80.8783 66.841 80.4443 67.639C80.0243 68.437 79.8143 69.361 79.8143 70.411C79.8143 71.461 80.0243 72.392 80.4443 73.204C80.8783 74.002 81.4733 74.618 82.2293 75.052C82.9853 75.486 83.8463 75.703 84.8123 75.703C86.1143 75.703 87.1713 75.339 87.9833 74.611C88.7953 73.883 89.2923 72.896 89.4743 71.65H83.9933V69.739H92.0363V71.608C91.8823 72.742 91.4763 73.785 90.8183 74.737C90.1743 75.689 89.3273 76.452 88.2773 77.026C87.2413 77.586 86.0863 77.866 84.8123 77.866C83.4403 77.866 82.1873 77.551 81.0533 76.921C79.9193 76.277 79.0163 75.388 78.3443 74.254C77.6863 73.12 77.3573 71.839 77.3573 70.411C77.3573 68.983 77.6863 67.702 78.3443 66.568C79.0163 65.434 79.9193 64.552 81.0533 63.922C82.2013 63.278 83.4543 62.956 84.8123 62.956C86.3663 62.956 87.7453 63.341 88.9493 64.111C90.1673 64.867 91.0493 65.945 91.5953 67.345H88.7183ZM109.282 63.145V65.098H105.397V77.74H103.003V65.098H99.0965V63.145H109.282ZM118.363 77.887C117.005 77.887 115.752 77.572 114.604 76.942C113.47 76.298 112.567 75.409 111.895 74.275C111.237 73.127 110.908 71.839 110.908 70.411C110.908 68.983 111.237 67.702 111.895 66.568C112.567 65.434 113.47 64.552 114.604 63.922C115.752 63.278 117.005 62.956 118.363 62.956C119.735 62.956 120.988 63.278 122.122 63.922C123.27 64.552 124.173 65.434 124.831 66.568C125.489 67.702 125.818 68.983 125.818 70.411C125.818 71.839 125.489 73.127 124.831 74.275C124.173 75.409 123.27 76.298 122.122 76.942C120.988 77.572 119.735 77.887 118.363 77.887ZM118.363 75.808C119.329 75.808 120.19 75.591 120.946 75.157C121.702 74.709 122.29 74.079 122.71 73.267C123.144 72.441 123.361 71.489 123.361 70.411C123.361 69.333 123.144 68.388 122.71 67.576C122.29 66.764 121.702 66.141 120.946 65.707C120.19 65.273 119.329 65.056 118.363 65.056C117.397 65.056 116.536 65.273 115.78 65.707C115.024 66.141 114.429 66.764 113.995 67.576C113.575 68.388 113.365 69.333 113.365 70.411C113.365 71.489 113.575 72.441 113.995 73.267C114.429 74.079 115.024 74.709 115.78 75.157C116.536 75.591 117.397 75.808 118.363 75.808ZM143.546 63.145V77.74H141.152V67.744L136.7 77.74H135.041L130.568 67.744V77.74H128.174V63.145H130.757L135.881 74.59L140.984 63.145H143.546ZM153.349 77.887C151.991 77.887 150.738 77.572 149.59 76.942C148.456 76.298 147.553 75.409 146.881 74.275C146.223 73.127 145.894 71.839 145.894 70.411C145.894 68.983 146.223 67.702 146.881 66.568C147.553 65.434 148.456 64.552 149.59 63.922C150.738 63.278 151.991 62.956 153.349 62.956C154.721 62.956 155.974 63.278 157.108 63.922C158.256 64.552 159.159 65.434 159.817 66.568C160.475 67.702 160.804 68.983 160.804 70.411C160.804 71.839 160.475 73.127 159.817 74.275C159.159 75.409 158.256 76.298 157.108 76.942C155.974 77.572 154.721 77.887 153.349 77.887ZM153.349 75.808C154.315 75.808 155.176 75.591 155.932 75.157C156.688 74.709 157.276 74.079 157.696 73.267C158.13 72.441 158.347 71.489 158.347 70.411C158.347 69.333 158.13 68.388 157.696 67.576C157.276 66.764 156.688 66.141 155.932 65.707C155.176 65.273 154.315 65.056 153.349 65.056C152.383 65.056 151.522 65.273 150.766 65.707C150.01 66.141 149.415 66.764 148.981 67.576C148.561 68.388 148.351 69.333 148.351 70.411C148.351 71.489 148.561 72.441 148.981 73.267C149.415 74.079 150.01 74.709 150.766 75.157C151.522 75.591 152.383 75.808 153.349 75.808ZM170.741 77.74L167.381 71.902H165.554V77.74H163.16V63.145H168.2C169.32 63.145 170.265 63.341 171.035 63.733C171.819 64.125 172.4 64.65 172.778 65.308C173.17 65.966 173.366 66.701 173.366 67.513C173.366 68.465 173.086 69.333 172.526 70.117C171.98 70.887 171.133 71.412 169.985 71.692L173.597 77.74H170.741ZM165.554 69.991H168.2C169.096 69.991 169.768 69.767 170.216 69.319C170.678 68.871 170.909 68.269 170.909 67.513C170.909 66.757 170.685 66.169 170.237 65.749C169.789 65.315 169.11 65.098 168.2 65.098H165.554V69.991ZM184.01 77.74L180.65 71.902H178.823V77.74H176.429V63.145H181.469C182.589 63.145 183.534 63.341 184.304 63.733C185.088 64.125 185.669 64.65 186.047 65.308C186.439 65.966 186.635 66.701 186.635 67.513C186.635 68.465 186.355 69.333 185.795 70.117C185.249 70.887 184.402 71.412 183.254 71.692L186.866 77.74H184.01ZM178.823 69.991H181.469C182.365 69.991 183.037 69.767 183.485 69.319C183.947 68.871 184.178 68.269 184.178 67.513C184.178 66.757 183.954 66.169 183.506 65.749C183.058 65.315 182.379 65.098 181.469 65.098H178.823V69.991ZM196.354 77.887C194.996 77.887 193.743 77.572 192.595 76.942C191.461 76.298 190.558 75.409 189.886 74.275C189.228 73.127 188.899 71.839 188.899 70.411C188.899 68.983 189.228 67.702 189.886 66.568C190.558 65.434 191.461 64.552 192.595 63.922C193.743 63.278 194.996 62.956 196.354 62.956C197.726 62.956 198.979 63.278 200.113 63.922C201.261 64.552 202.164 65.434 202.822 66.568C203.48 67.702 203.809 68.983 203.809 70.411C203.809 71.839 203.48 73.127 202.822 74.275C202.164 75.409 201.261 76.298 200.113 76.942C198.979 77.572 197.726 77.887 196.354 77.887ZM196.354 75.808C197.32 75.808 198.181 75.591 198.937 75.157C199.693 74.709 200.281 74.079 200.701 73.267C201.135 72.441 201.352 71.489 201.352 70.411C201.352 69.333 201.135 68.388 200.701 67.576C200.281 66.764 199.693 66.141 198.937 65.707C198.181 65.273 197.32 65.056 196.354 65.056C195.388 65.056 194.527 65.273 193.771 65.707C193.015 66.141 192.42 66.764 191.986 67.576C191.566 68.388 191.356 69.333 191.356 70.411C191.356 71.489 191.566 72.441 191.986 73.267C192.42 74.079 193.015 74.709 193.771 75.157C194.527 75.591 195.388 75.808 196.354 75.808ZM225.17 63.145L220.844 77.74H218.135L215.069 66.694L211.814 77.74L209.126 77.761L204.989 63.145H207.53L210.554 75.031L213.83 63.145H216.518L219.563 74.968L222.608 63.145H225.17ZM242.029 63.145V65.098H238.144V77.74H235.75V65.098H231.844V63.145H242.029ZM251.11 77.887C249.752 77.887 248.499 77.572 247.351 76.942C246.217 76.298 245.314 75.409 244.642 74.275C243.984 73.127 243.655 71.839 243.655 70.411C243.655 68.983 243.984 67.702 244.642 66.568C245.314 65.434 246.217 64.552 247.351 63.922C248.499 63.278 249.752 62.956 251.11 62.956C252.482 62.956 253.735 63.278 254.869 63.922C256.017 64.552 256.92 65.434 257.578 66.568C258.236 67.702 258.565 68.983 258.565 70.411C258.565 71.839 258.236 73.127 257.578 74.275C256.92 75.409 256.017 76.298 254.869 76.942C253.735 77.572 252.482 77.887 251.11 77.887ZM251.11 75.808C252.076 75.808 252.937 75.591 253.693 75.157C254.449 74.709 255.037 74.079 255.457 73.267C255.891 72.441 256.108 71.489 256.108 70.411C256.108 69.333 255.891 68.388 255.457 67.576C255.037 66.764 254.449 66.141 253.693 65.707C252.937 65.273 252.076 65.056 251.11 65.056C250.144 65.056 249.283 65.273 248.527 65.707C247.771 66.141 247.176 66.764 246.742 67.576C246.322 68.388 246.112 69.333 246.112 70.411C246.112 71.489 246.322 72.441 246.742 73.267C247.176 74.079 247.771 74.709 248.527 75.157C249.283 75.591 250.144 75.808 251.11 75.808ZM271.484 67.345C271.106 66.617 270.581 66.071 269.909 65.707C269.237 65.329 268.46 65.14 267.578 65.14C266.612 65.14 265.751 65.357 264.995 65.791C264.239 66.225 263.644 66.841 263.21 67.639C262.79 68.437 262.58 69.361 262.58 70.411C262.58 71.461 262.79 72.392 263.21 73.204C263.644 74.002 264.239 74.618 264.995 75.052C265.751 75.486 266.612 75.703 267.578 75.703C268.88 75.703 269.937 75.339 270.749 74.611C271.561 73.883 272.058 72.896 272.24 71.65H266.759V69.739H274.802V71.608C274.648 72.742 274.242 73.785 273.584 74.737C272.94 75.689 272.093 76.452 271.043 77.026C270.007 77.586 268.852 77.866 267.578 77.866C266.206 77.866 264.953 77.551 263.819 76.921C262.685 76.277 261.782 75.388 261.11 74.254C260.452 73.12 260.123 71.839 260.123 70.411C260.123 68.983 260.452 67.702 261.11 66.568C261.782 65.434 262.685 64.552 263.819 63.922C264.967 63.278 266.22 62.956 267.578 62.956C269.132 62.956 270.511 63.341 271.715 64.111C272.933 64.867 273.815 65.945 274.361 67.345H271.484ZM279.557 65.077V69.361H284.597V71.314H279.557V75.787H285.227V77.74H277.163V63.124H285.227V65.077H279.557ZM297.605 63.145V65.098H293.72V77.74H291.326V65.098H287.42V63.145H297.605ZM311.684 63.145V77.74H309.29V71.356H302.423V77.74H300.029V63.145H302.423V69.403H309.29V63.145H311.684ZM317.23 65.077V69.361H322.27V71.314H317.23V75.787H322.9V77.74H314.836V63.124H322.9V65.077H317.23ZM333.43 77.74L330.07 71.902H328.243V77.74H325.849V63.145H330.889C332.009 63.145 332.954 63.341 333.724 63.733C334.508 64.125 335.089 64.65 335.467 65.308C335.859 65.966 336.055 66.701 336.055 67.513C336.055 68.465 335.775 69.333 335.215 70.117C334.669 70.887 333.822 71.412 332.674 71.692L336.286 77.74H333.43ZM328.243 69.991H330.889C331.785 69.991 332.457 69.767 332.905 69.319C333.367 68.871 333.598 68.269 333.598 67.513C333.598 66.757 333.374 66.169 332.926 65.749C332.478 65.315 331.799 65.098 330.889 65.098H328.243V69.991ZM241.425 37.74L228.425 1.24H218.425L204.925 38.24H214.925L223.425 12.74L231.925 37.74H241.425Z" fill="white"/>
</svg>
