<?xml version="1.0" standalone="no"?>
<!DOCTYPE svg PUBLIC "-//W3C//DTD SVG 1.0//EN" "http://www.w3.org/TR/2001/REC-SVG-20010904/DTD/svg10.dtd">
<svg xmlns="http://www.w3.org/2000/svg" xmlns:xlink="http://www.w3.org/1999/xlink" id="body_1" width="460" height="431">

<defs>
    <clipPath  id="1">

    <path id=""  clip-rule="evenodd" transform="matrix(1 0 0 1 0 0)"  d="M0 323L0 -0.25L0 -0.25L345.75 -0.25L345.75 -0.25L345.75 323L345.75 323L0 323z" />    </clipPath>
</defs>

<g transform="matrix(1.3333 0 0 1.3333 0 0)">
	<g clip-path="url(#1)" >
    <path id=""  transform="matrix(1 0 0 -1 0 323)"  d="M7.5 164.0115C 7.5 251.95642 78.7935 323.25 166.7385 323.25L166.7385 323.25L166.7385 323.25L166.7385 323.25L185.7615 323.25L185.7615 323.25L185.7615 323.25C 210.77026 323.25 234.43199 317.4849 255.49124 307.21118L255.49124 307.21118L255.49124 307.21118C 232.61026 300.07944 216 278.7295 216 253.5L216 253.5L216 253.5C 216 222.43425 241.18427 197.25 272.25 197.25L272.25 197.25L272.25 197.25L272.25 197.25L300 197.25L300 197.25L300 197.25C 314.511 197.25 327.738 202.7445 337.71524 211.76625L337.71524 211.76625L337.71524 211.76625C 342.4485 196.69049 345 180.64876 345 164.0115L345 164.0115L345 164.0115C 345 76.0665 273.70648 4.7730103 185.7615 4.7730103L185.7615 4.7730103L185.7615 4.7730103L185.7615 4.7730103L166.7385 4.7730103L166.7385 4.7730103L166.7385 4.7730103C 145.48799 4.7730103 125.21025 8.935486 106.67549 16.489502L106.67549 16.489502L106.67549 16.489502C 113.40599 25.760986 117.375 37.166992 117.375 49.5L117.375 49.5L117.375 49.5C 117.375 80.565735 92.19075 105.75 61.125 105.75L61.125 105.75L61.125 105.75L61.125 105.75L48 105.75L48 105.75L48 105.75C 38.34465 105.75 29.2575 103.31702 21.318075 99.031494L21.318075 99.031494L21.318075 99.031494C 12.438076 118.87424 7.5 140.86575 7.5 164.0115z" stroke="#FFFFFF" stroke-width="1" fill="none" stroke-opacity="0" />
    <path id=""  transform="matrix(1 0 0 -1 0 323)"  d="M-8.25 323.25L-8.25 323.25L-8.25 323.25L360.75 323.25L360.75 323.25L360.75 4.5L360.75 4.5L-8.25 4.5z" stroke="#FFFFFF" stroke-width="0.75" fill="none" stroke-opacity="0" />
    <path id=""  transform="matrix(1 0 0 -1 0 323)"  d="M223.5 300C 223.5 300 234.41306 300 247.875 300L247.875 300L247.875 300L247.875 300L320.67523 300L320.67523 300L320.67523 300C 334.13718 300 345.05023 300 345.05023 300L345.05023 300L320.67523 300C 334.13718 300 345.05023 300 345.05023 300L345.05023 300L345.05023 300L345.05023 300L345.05023 202.5L345.05023 202.5L345.05023 202.5C 345.05023 202.5 334.13718 202.5 320.67523 202.5L320.67523 202.5L345.05023 202.5C 345.05023 202.5 334.13718 202.5 320.67523 202.5L320.67523 202.5L320.67523 202.5L320.67523 202.5L247.875 202.5L247.875 202.5L247.875 202.5C 234.41306 202.5 223.5 202.5 223.5 202.5L223.5 202.5L247.875 202.5C 234.41306 202.5 223.5 202.5 223.5 202.5L223.5 202.5L223.5 202.5L223.5 202.5L223.5 300L223.5 300L223.5 300C 223.5 300 234.41306 300 247.875 300z" stroke="#FFFFFF" stroke-width="0.75" fill="none" stroke-opacity="0" />
    <path id=""  transform="matrix(1 0 0 -1 0 323)"  d="M0 97.5C 0 97.5 10.913059 97.5 24.375 97.5L24.375 97.5L24.375 97.5L24.375 97.5L84.50026 97.5L84.50026 97.5L84.50026 97.5C 97.962204 97.5 108.87526 97.5 108.87526 97.5L108.87526 97.5L84.50026 97.5C 97.962204 97.5 108.87526 97.5 108.87526 97.5L108.87526 97.5L108.87526 97.5L108.87526 97.5L108.87526 0L108.87526 0L108.87526 0C 108.87526 0 97.962204 0 84.50026 0L84.50026 0L108.87526 0C 108.87526 0 97.962204 0 84.50026 0L84.50026 0L84.50026 0L84.50026 0L24.375 0L24.375 0L24.375 0C 10.913059 0 0 0 0 0L0 0L24.375 0C 10.913059 0 0 0 0 0L0 0L0 0L0 0L0 97.5L0 97.5L0 97.5C 0 97.5 10.913059 97.5 24.375 97.5z" stroke="#FFFFFF" stroke-width="0.75" fill="none" stroke-opacity="0" />
	</g>
</g>
</svg>